<svg width="34" height="34" viewBox="0 0 34 34" fill="none" xmlns="http://www.w3.org/2000/svg">
<rect width="34" height="34" rx="6" fill="#F2F2F2"/>
<path fill-rule="evenodd" clip-rule="evenodd" d="M14.4374 20.6587H18.9259C19.2641 20.6587 19.5447 20.3753 19.5447 20.0337C19.5447 19.692 19.2641 19.417 18.9259 19.417H14.4374C14.0991 19.417 13.8186 19.692 13.8186 20.0337C13.8186 20.3753 14.0991 20.6587 14.4374 20.6587ZM17.2262 15.2503H14.4374C14.0991 15.2503 13.8186 15.5337 13.8186 15.8753C13.8186 16.217 14.0991 16.492 14.4374 16.492H17.2262C17.5645 16.492 17.845 16.217 17.845 15.8753C17.845 15.5337 17.5645 15.2503 17.2262 15.2503ZM23.1144 14.5217C23.3083 14.5194 23.5195 14.517 23.7114 14.517C23.9177 14.517 24.0827 14.6837 24.0827 14.892V21.592C24.0827 23.6587 22.4243 25.3337 20.3781 25.3337H13.8104C11.6652 25.3337 9.91602 23.5753 9.91602 21.4087V12.4253C9.91602 10.3587 11.5827 8.66699 13.6371 8.66699H18.0431C18.2576 8.66699 18.4226 8.84199 18.4226 9.05033V11.7337C18.4226 13.2587 19.6685 14.5087 21.1784 14.517C21.5311 14.517 21.842 14.5196 22.1141 14.5219C22.3258 14.5237 22.514 14.5253 22.68 14.5253C22.7975 14.5253 22.9497 14.5236 23.1144 14.5217ZM23.3421 13.3053C22.6639 13.3078 21.8644 13.3053 21.2893 13.2995C20.3767 13.2995 19.6251 12.5403 19.6251 11.6187V9.422C19.6251 9.06283 20.0566 8.8845 20.3033 9.14367C20.7503 9.61305 21.3646 10.2584 21.976 10.9007C22.5847 11.5401 23.1904 12.1764 23.6251 12.6328C23.866 12.8853 23.6894 13.3045 23.3421 13.3053Z" fill="#BDBDBD"/>
</svg>
