<svg width="34" height="34" viewBox="0 0 34 34" fill="none" xmlns="http://www.w3.org/2000/svg">
<rect width="34" height="34" rx="6" fill="#F2F2F2"/>
<path d="M23.6609 22.7939H18.9157C18.4527 22.7939 18.0762 23.1765 18.0762 23.6468C18.0762 24.118 18.4527 24.4996 18.9157 24.4996H23.6609C24.1239 24.4996 24.5004 24.118 24.5004 23.6468C24.5004 23.1765 24.1239 22.7939 23.6609 22.7939Z" fill="#BDBDBD"/>
<path d="M15.5909 12.7528L20.0874 16.3863C20.1959 16.4731 20.2144 16.6326 20.1297 16.7437L14.799 23.6898C14.4638 24.1189 13.97 24.3617 13.4409 24.3706L10.5308 24.4064C10.3756 24.4082 10.2398 24.3007 10.2045 24.1467L9.54313 21.2711C9.42849 20.7426 9.54313 20.1961 9.87823 19.7751L15.2355 12.7958C15.3219 12.6839 15.4815 12.6642 15.5909 12.7528Z" fill="#BDBDBD"/>
<path d="M22.1011 14.2212L21.2342 15.3033C21.1469 15.4135 20.9899 15.4314 20.8815 15.3436C19.8277 14.4908 17.1292 12.3024 16.3805 11.6959C16.2712 11.6063 16.2562 11.4469 16.3443 11.3358L17.1803 10.2975C17.9387 9.32111 19.2615 9.23153 20.3285 10.0826L21.5543 11.059C22.057 11.4531 22.3921 11.9727 22.5067 12.5192C22.639 13.1202 22.4979 13.7106 22.1011 14.2212Z" fill="#BDBDBD"/>
</svg>
