<svg width="24" height="24" viewBox="0 0 24 24" fill="none" xmlns="http://www.w3.org/2000/svg">
<path d="M12.0005 7.125C12.8164 7.125 13.6139 7.36693 14.2923 7.82019C14.9706 8.27345 15.4993 8.91769 15.8115 9.67143C16.1237 10.4252 16.2054 11.2546 16.0463 12.0547C15.8871 12.8549 15.4942 13.5899 14.9173 14.1668C14.3404 14.7437 13.6054 15.1366 12.8053 15.2957C12.0051 15.4549 11.1757 15.3732 10.422 15.061C9.66821 14.7488 9.02397 14.2201 8.57071 13.5417C8.11745 12.8634 7.87553 12.0658 7.87553 11.25C7.87553 10.156 8.31012 9.10677 9.08371 8.33318C9.8573 7.5596 10.9065 7.125 12.0005 7.125ZM21.6755 6.9375C21.6091 7.05251 21.5134 7.14783 21.3981 7.21371C21.2828 7.2796 21.1521 7.31369 21.0193 7.3125C20.8871 7.31357 20.7573 7.27786 20.6443 7.20938L20.213 6.95625C20.0029 7.1364 19.7614 7.27624 19.5005 7.36875V7.875C19.5005 8.07391 19.4215 8.26468 19.2809 8.40533C19.1402 8.54598 18.9494 8.625 18.7505 8.625C18.5516 8.625 18.3608 8.54598 18.2202 8.40533C18.0795 8.26468 18.0005 8.07391 18.0005 7.875V7.36875C17.7397 7.27624 17.4981 7.1364 17.288 6.95625L16.8568 7.20938C16.7438 7.27786 16.6139 7.31357 16.4818 7.3125C16.3175 7.31151 16.1581 7.25662 16.0281 7.15626C15.898 7.0559 15.8045 6.91562 15.7619 6.75697C15.7194 6.59832 15.73 6.43008 15.7923 6.27808C15.8546 6.12609 15.9651 5.99875 16.1068 5.91562L16.538 5.6625C16.5112 5.52668 16.4986 5.38843 16.5005 5.25C16.4986 5.11157 16.5112 4.97332 16.538 4.8375L16.1068 4.58438C16.0203 4.53661 15.9443 4.47204 15.8832 4.39447C15.8221 4.3169 15.7771 4.22789 15.7509 4.13268C15.7247 4.03746 15.7178 3.93797 15.7306 3.84005C15.7434 3.74213 15.7757 3.64777 15.8255 3.5625C15.9272 3.39076 16.0924 3.26594 16.2854 3.21506C16.4784 3.16418 16.6836 3.19133 16.8568 3.29062L17.288 3.54375C17.4981 3.3636 17.7397 3.22376 18.0005 3.13125V2.625C18.0005 2.42609 18.0795 2.23532 18.2202 2.09467C18.3608 1.95402 18.5516 1.875 18.7505 1.875C18.9494 1.875 19.1402 1.95402 19.2809 2.09467C19.4215 2.23532 19.5005 2.42609 19.5005 2.625V3.13125C19.7614 3.22376 20.0029 3.3636 20.213 3.54375L20.6443 3.29062C20.8174 3.19133 21.0227 3.16418 21.2157 3.21506C21.4086 3.26594 21.5738 3.39076 21.6755 3.5625C21.7253 3.64777 21.7576 3.74213 21.7704 3.84005C21.7832 3.93797 21.7763 4.03746 21.7501 4.13268C21.7239 4.22789 21.6789 4.3169 21.6178 4.39447C21.5567 4.47204 21.4807 4.53661 21.3943 4.58438L20.963 4.8375C20.9899 4.97332 21.0024 5.11157 21.0005 5.25C21.0024 5.38843 20.9899 5.52668 20.963 5.6625L21.3943 5.91562C21.4807 5.96339 21.5567 6.02796 21.6178 6.10553C21.6789 6.1831 21.7239 6.27211 21.7501 6.36732C21.7763 6.46254 21.7832 6.56203 21.7704 6.65995C21.7576 6.75787 21.7253 6.85223 21.6755 6.9375ZM18.7505 6C18.8989 6 19.0439 5.95601 19.1672 5.8736C19.2905 5.79119 19.3867 5.67406 19.4434 5.53701C19.5002 5.39997 19.5151 5.24917 19.4861 5.10368C19.4572 4.9582 19.3857 4.82456 19.2809 4.71967C19.176 4.61478 19.0423 4.54335 18.8968 4.51441C18.7514 4.48547 18.6006 4.50032 18.4635 4.55709C18.3265 4.61386 18.2093 4.70999 18.1269 4.83332C18.0445 4.95666 18.0005 5.10166 18.0005 5.25C18.0005 5.44891 18.0795 5.63968 18.2202 5.78033C18.3608 5.92098 18.5516 6 18.7505 6ZM20.8505 10.1812C20.6546 10.2048 20.4758 10.3046 20.353 10.459C20.2302 10.6134 20.1731 10.8101 20.1943 11.0063C20.2317 11.3362 20.2505 11.668 20.2505 12C20.2533 14.0188 19.5124 15.9678 18.1693 17.475C17.5622 16.6041 16.7798 15.8697 15.8724 15.3187C14.8305 16.3169 13.4434 16.8741 12.0005 16.8741C10.5577 16.8741 9.17054 16.3169 8.12865 15.3187C7.22122 15.8697 6.43888 16.6041 5.83178 17.475C4.77691 16.2859 4.088 14.8175 3.8479 13.2462C3.60779 11.6749 3.82672 10.0677 4.47834 8.61791C5.12997 7.1681 6.18654 5.93739 7.52101 5.0738C8.85547 4.21022 10.411 3.75052 12.0005 3.75C12.2573 3.74846 12.5139 3.76097 12.7693 3.7875C12.8678 3.79612 12.967 3.78525 13.0613 3.75552C13.1556 3.72579 13.2431 3.67778 13.3188 3.61423C13.3946 3.55068 13.457 3.47284 13.5027 3.38514C13.5483 3.29745 13.5763 3.20162 13.5849 3.10312C13.5935 3.00463 13.5827 2.90541 13.5529 2.81112C13.5232 2.71682 13.4752 2.62931 13.4116 2.55357C13.3481 2.47784 13.2702 2.41536 13.1825 2.3697C13.0948 2.32405 12.999 2.29612 12.9005 2.2875C12.6099 2.25937 12.3005 2.25 12.0005 2.25C10.0359 2.25068 8.11736 2.84484 6.49623 3.95463C4.87511 5.06441 3.62706 6.63804 2.91564 8.4693C2.20421 10.3006 2.0626 12.304 2.50935 14.2172C2.9561 16.1303 3.97038 17.8638 5.41928 19.1906L5.54115 19.3031C7.32358 20.8796 9.62098 21.7498 12.0005 21.7498C14.3801 21.7498 16.6775 20.8796 18.4599 19.3031L18.5818 19.1906C19.5813 18.2786 20.3794 17.1679 20.925 15.9297C21.4706 14.6915 21.7518 13.3531 21.7505 12C21.7523 11.6115 21.7304 11.2233 21.6849 10.8375C21.6733 10.7396 21.6425 10.6449 21.5942 10.5589C21.546 10.473 21.4813 10.3973 21.4038 10.3364C21.3263 10.2754 21.2375 10.2303 21.1426 10.2037C21.0477 10.1771 20.9484 10.1695 20.8505 10.1812Z" fill="#828282"/>
</svg>
