<svg width="30" height="30" viewBox="0 0 30 30" fill="none" xmlns="http://www.w3.org/2000/svg">
<rect width="30" height="30" rx="6" fill="#F2F9E8"/>
<path d="M22.4996 14.9999C22.4996 15.1657 22.4338 15.3247 22.3166 15.4419C22.1993 15.5591 22.0404 15.6249 21.8746 15.6249H14.3746C14.2088 15.6249 14.0499 15.5591 13.9327 15.4419C13.8155 15.3247 13.7496 15.1657 13.7496 14.9999C13.7496 14.8342 13.8155 14.6752 13.9327 14.558C14.0499 14.4408 14.2088 14.3749 14.3746 14.3749H21.8746C22.0404 14.3749 22.1993 14.4408 22.3166 14.558C22.4338 14.6752 22.4996 14.8342 22.4996 14.9999ZM14.3746 10.6249H21.8746C22.0404 10.6249 22.1993 10.5591 22.3166 10.4419C22.4338 10.3247 22.4996 10.1657 22.4996 9.99994C22.4996 9.83418 22.4338 9.67521 22.3166 9.558C22.1993 9.44079 22.0404 9.37494 21.8746 9.37494H14.3746C14.2088 9.37494 14.0499 9.44079 13.9327 9.558C13.8155 9.67521 13.7496 9.83418 13.7496 9.99994C13.7496 10.1657 13.8155 10.3247 13.9327 10.4419C14.0499 10.5591 14.2088 10.6249 14.3746 10.6249ZM21.8746 19.3749H8.12461C7.95885 19.3749 7.79988 19.4408 7.68267 19.558C7.56546 19.6752 7.49961 19.8342 7.49961 19.9999C7.49961 20.1657 7.56546 20.3247 7.68267 20.4419C7.79988 20.5591 7.95885 20.6249 8.12461 20.6249H21.8746C22.0404 20.6249 22.1993 20.5591 22.3166 20.4419C22.4338 20.3247 22.4996 20.1657 22.4996 19.9999C22.4996 19.8342 22.4338 19.6752 22.3166 19.558C22.1993 19.4408 22.0404 19.3749 21.8746 19.3749ZM10.6246 16.2499C10.7076 16.2496 10.7897 16.2337 10.8668 16.2031C10.9805 16.1553 11.0776 16.0748 11.1457 15.972C11.2138 15.8691 11.25 15.7483 11.2496 15.6249V9.37494C11.25 9.25155 11.2138 9.1308 11.1457 9.02792C11.0776 8.92504 10.9805 8.84463 10.8668 8.79681C10.7514 8.75179 10.6255 8.74036 10.5039 8.76387C10.3822 8.78737 10.2697 8.84484 10.1793 8.92963L7.0543 12.0546C6.93693 12.1731 6.87109 12.3332 6.87109 12.4999C6.87109 12.6667 6.93693 12.8268 7.0543 12.9453L10.1793 16.0703C10.2993 16.1849 10.4586 16.2492 10.6246 16.2499Z" fill="#6BA425"/>
</svg>
