<svg width="24" height="24" viewBox="0 0 24 24" fill="none" xmlns="http://www.w3.org/2000/svg">
<path d="M6.01521 10.9717C6.40041 10.9717 6.74828 11.1949 6.93336 11.5327C8.59463 14.5652 11.4213 16.5834 11.589 16.7023C11.6846 16.7662 11.7968 16.8003 11.9116 16.8003C12.0264 16.8003 12.1386 16.7662 12.2342 16.7023C12.402 16.5834 15.2286 14.5652 16.8899 11.5327C17.0749 11.1949 17.4228 10.9717 17.808 10.9717H20.5612C20.908 10.9717 21.2001 11.2306 21.2419 11.5749L21.4092 12.9552L9.66934 19.5392L3.77297 10.9717H6.01521Z" fill="#828282"/>
<path d="M17.6441 16.2461L21.5431 14.0595L22.4471 21.5177C22.4833 21.8168 22.3221 22.0898 22.0716 22.2146L17.6441 16.2461Z" fill="#828282"/>
<path d="M2.71326 11.2463C2.64328 11.3396 2.59624 11.4518 2.58134 11.5749L1.37615 21.5177C1.32676 21.9262 1.64551 22.286 2.05684 22.286H4.77141L8.76834 20.0444L2.71326 11.2463Z" fill="#828282"/>
<path d="M20.844 22.286H6.87425L16.7398 16.7533L20.844 22.286Z" fill="#828282"/>
<path d="M12 2C10.6744 2.00154 9.40348 2.54012 8.46613 3.4976C7.52877 4.45508 7.0015 5.75326 7 7.10734C7 11.4776 11.5455 14.78 11.7386 14.9193C11.8161 14.9719 11.907 15 12 15C12.093 15 12.1839 14.9719 12.2614 14.9193C12.4545 14.78 17 11.4776 17 7.10734C16.9985 5.75326 16.4712 4.45508 15.5339 3.4976C14.5965 2.54012 13.3256 2.00154 12 2ZM12 5.25013C12.3596 5.25013 12.7111 5.35905 13.0101 5.56312C13.3091 5.7672 13.5422 6.05725 13.6798 6.39662C13.8174 6.73598 13.8534 7.1094 13.7832 7.46967C13.7131 7.82993 13.5399 8.16085 13.2856 8.42059C13.0314 8.68033 12.7074 8.85721 12.3547 8.92887C12.002 9.00053 11.6364 8.96375 11.3042 8.82318C10.972 8.68262 10.688 8.44457 10.4882 8.13915C10.2885 7.83374 10.1818 7.47466 10.1818 7.10734C10.1818 6.61478 10.3734 6.14239 10.7144 5.79409C11.0553 5.4458 11.5178 5.25013 12 5.25013Z" fill="#828282"/>
</svg>
