<svg width="24" height="24" viewBox="0 0 24 24" fill="none" xmlns="http://www.w3.org/2000/svg">
<path d="M21.9998 3.4099L21.8798 2.1499L20.6798 2.5499C18.6232 3.26445 16.4271 3.48372 14.2698 3.1899C12.003 2.83811 9.68274 3.15072 7.58982 4.0899C6.48029 4.56235 5.50657 5.30482 4.75729 6.24971C4.00801 7.19461 3.50698 8.31191 3.29982 9.4999C3.0312 11.0346 3.16558 12.6127 3.68982 14.0799C4.02737 13.318 4.42182 12.5826 4.86982 11.8799C5.88602 10.3847 7.29409 9.19808 8.93982 8.4499C10.5253 7.72603 12.2582 7.38355 13.9998 7.4499C12.3418 7.7034 10.7548 8.29939 9.33982 9.1999C8.65729 9.62875 8.03225 10.1429 7.47982 10.7299C6.95148 11.3166 6.48564 11.9567 6.08982 12.6399C5.34635 14.0679 4.81733 15.5977 4.51982 17.1799C4.19913 18.7672 4.02506 20.3807 3.99982 21.9999H5.99982C6.09381 20.5477 6.29098 19.1041 6.58982 17.6799C7.97725 18.4291 9.53317 18.8112 11.1098 18.7899C12.5803 18.7889 14.0356 18.4931 15.3898 17.9199C22.9998 14.6699 21.9998 3.8599 21.9998 3.4099Z" fill="#828282"/>
</svg>
