<svg width="24" height="24" viewBox="0 0 24 24" fill="none" xmlns="http://www.w3.org/2000/svg">
<path d="M20.5127 9.72159L13.0127 2.90597C12.7362 2.65299 12.375 2.5127 12.0002 2.5127C11.6254 2.5127 11.2642 2.65299 10.9877 2.90597L3.4877 9.72159C3.33414 9.86208 3.2115 10.033 3.12757 10.2234C3.04364 10.4139 3.00027 10.6197 3.0002 10.8278V19.4622C2.9941 19.8404 3.12761 20.2075 3.3752 20.4935C3.51572 20.6533 3.68882 20.7811 3.88287 20.8684C4.07692 20.9558 4.28741 21.0005 4.5002 20.9997H9.0002C9.19911 20.9997 9.38988 20.9207 9.53053 20.78C9.67118 20.6394 9.7502 20.4486 9.7502 20.2497V15.7497C9.7502 15.5508 9.82922 15.36 9.96987 15.2194C10.1105 15.0787 10.3013 14.9997 10.5002 14.9997H13.5002C13.6991 14.9997 13.8899 15.0787 14.0305 15.2194C14.1712 15.36 14.2502 15.5508 14.2502 15.7497V20.2497C14.2502 20.4486 14.3292 20.6394 14.4699 20.78C14.6105 20.9207 14.8013 20.9997 15.0002 20.9997H19.5002C19.749 21.0019 19.9942 20.9406 20.2127 20.8216C20.4504 20.6921 20.649 20.5011 20.7875 20.2685C20.9261 20.036 20.9995 19.7704 21.0002 19.4997V10.8278C21.0001 10.6197 20.9568 10.4139 20.8728 10.2234C20.7889 10.033 20.6663 9.86208 20.5127 9.72159Z" fill="#828282"/>
</svg>
