<svg width="24" height="24" viewBox="0 0 24 24" fill="none" xmlns="http://www.w3.org/2000/svg">
<path d="M15.0094 3.75C13.4755 3.74998 11.9719 4.17709 10.6671 4.98349C9.36232 5.78988 8.30785 6.94369 7.62187 8.31562C7.04924 9.44939 6.75061 10.7017 6.75 11.9719C6.75327 12.165 6.68372 12.3523 6.55517 12.4965C6.42662 12.6407 6.2485 12.7312 6.05625 12.75C5.95313 12.7578 5.84952 12.7441 5.75193 12.7099C5.65435 12.6757 5.56488 12.6217 5.48917 12.5513C5.41345 12.4808 5.35312 12.3955 5.31196 12.3006C5.2708 12.2058 5.24971 12.1034 5.25 12C5.25038 10.952 5.41812 9.91074 5.74687 8.91562C5.76881 8.85217 5.77332 8.78399 5.75991 8.7182C5.74651 8.65242 5.71568 8.59144 5.67067 8.54163C5.62565 8.49182 5.56808 8.45501 5.50398 8.43504C5.43988 8.41508 5.37159 8.41269 5.30625 8.42813C4.00581 8.75051 2.8507 9.49889 2.02497 10.554C1.19924 11.6091 0.75041 12.9102 0.75 14.25C0.75 17.55 3.54375 20.25 6.83437 20.25H15C17.188 20.2512 19.2869 19.3832 20.835 17.8369C22.3831 16.2907 23.2534 14.1927 23.2547 12.0047C23.2559 9.81665 22.3879 7.71774 20.8416 6.16968C19.2953 4.62163 17.1974 3.75124 15.0094 3.75Z" fill="#828282"/>
</svg>
