<svg width="34" height="35" viewBox="0 0 34 35" fill="none" xmlns="http://www.w3.org/2000/svg">
<rect y="0.769287" width="34" height="34" rx="6" fill="#F2F2F2"/>
<path d="M13.2344 15.5583H9.48438V11.8083" stroke="#828282" stroke-width="1.5" stroke-linecap="round" stroke-linejoin="round"/>
<path d="M12.1406 22.6287C13.1019 23.5907 14.3269 24.2461 15.6607 24.5118C16.9944 24.7775 18.3771 24.6417 19.6336 24.1215C20.8902 23.6013 21.9642 22.7201 22.7199 21.5894C23.4756 20.4587 23.879 19.1293 23.879 17.7693C23.879 16.4093 23.4756 15.0799 22.7199 13.9492C21.9642 12.8185 20.8902 11.9373 19.6336 11.4171C18.3771 10.8969 16.9944 10.7611 15.6607 11.0268C14.3269 11.2925 13.1019 11.9479 12.1406 12.9099L9.48438 15.5584" stroke="#828282" stroke-width="1.5" stroke-linecap="round" stroke-linejoin="round"/>
</svg>
