<svg width="24" height="24" viewBox="0 0 24 24" fill="none" xmlns="http://www.w3.org/2000/svg">
<path d="M19.6449 9.48826C19.6449 9.55626 19.112 16.297 18.8076 19.1339C18.6169 20.8749 17.4946 21.9308 15.8111 21.9608C14.5176 21.9898 13.2514 21.9998 12.0055 21.9998C10.6829 21.9998 9.38936 21.9898 8.1338 21.9608C6.50672 21.9218 5.38342 20.8449 5.20253 19.1339C4.88936 16.287 4.36613 9.55626 4.35641 9.48826C4.34668 9.28327 4.41281 9.08828 4.54703 8.93028C4.67929 8.78429 4.86991 8.69629 5.07026 8.69629H18.9408C19.1402 8.69629 19.3211 8.78429 19.464 8.93028C19.5973 9.08828 19.6644 9.28327 19.6449 9.48826Z" fill="white"/>
<path d="M21 5.97686C21 5.56588 20.6761 5.24389 20.2871 5.24389H17.3714C16.7781 5.24389 16.2627 4.8219 16.1304 4.22692L15.967 3.49795C15.7385 2.61698 14.9498 2 14.0647 2H9.93624C9.0415 2 8.26054 2.61698 8.02323 3.54595L7.87054 4.22792C7.7373 4.8219 7.22185 5.24389 6.62957 5.24389H3.71385C3.32386 5.24389 3 5.56588 3 5.97686V6.35685C3 6.75783 3.32386 7.08982 3.71385 7.08982H20.2871C20.6761 7.08982 21 6.75783 21 6.35685V5.97686Z" fill="white"/>
</svg>
