<svg width="18" height="18" viewBox="0 0 18 18" fill="none" xmlns="http://www.w3.org/2000/svg">
<path d="M16.9908 15.9531H11.2965C10.7409 15.9531 10.2891 16.4121 10.2891 16.9765C10.2891 17.5419 10.7409 17.9999 11.2965 17.9999H16.9908C17.5463 17.9999 17.9982 17.5419 17.9982 16.9765C17.9982 16.4121 17.5463 15.9531 16.9908 15.9531Z" fill="white"/>
<path d="M7.30902 3.90361L12.7049 8.2637C12.835 8.36797 12.8573 8.55932 12.7557 8.69261L6.35874 17.028C5.95662 17.5429 5.36402 17.8342 4.72908 17.8449L1.23696 17.8879C1.05071 17.8901 0.887748 17.7611 0.845419 17.5762L0.0517547 14.1255C-0.0858138 13.4913 0.0517547 12.8356 0.453878 12.3303L6.88256 3.95521C6.98627 3.82083 7.1778 3.79719 7.30902 3.90361Z" fill="white"/>
<path d="M15.1213 5.66544L14.081 6.96401C13.9763 7.09623 13.7879 7.11773 13.6578 7.01238C12.3932 5.98901 9.15503 3.36285 8.2566 2.63509C8.12538 2.52759 8.10739 2.33625 8.21322 2.20295L9.21641 0.957057C10.1265 -0.214663 11.7138 -0.322161 12.9942 0.699064L14.4652 1.87078C15.0684 2.34377 15.4705 2.96726 15.6081 3.62299C15.7668 4.3443 15.5975 5.0527 15.1213 5.66544Z" fill="white"/>
</svg>
