<?xml version="1.0" standalone="no"?>
<!DOCTYPE svg PUBLIC "-//W3C//DTD SVG 20010904//EN"
 "http://www.w3.org/TR/2001/REC-SVG-20010904/DTD/svg10.dtd">
<svg version="1.0" xmlns="http://www.w3.org/2000/svg"
 width="315.000000pt" height="108.000000pt" viewBox="0 0 315.000000 108.000000"
 preserveAspectRatio="xMidYMid meet">
<metadata>
Created by potrace 1.16, written by Peter Selinger 2001-2019
</metadata>
<g transform="translate(0.000000,108.000000) scale(0.100000,-0.100000)"
fill="#000000" stroke="none">
<path d="M1470 917 c-60 -31 -102 -99 -108 -172 -9 -106 66 -205 169 -223 102
-18 191 25 235 114 47 96 20 209 -65 269 -36 25 -54 30 -114 33 -61 3 -79 0
-117 -21z m140 -107 c15 0 32 -61 27 -96 -8 -47 -23 -64 -58 -64 -34 0 -59 32
-59 77 0 63 28 98 68 87 8 -2 17 -4 22 -4z"/>
<path d="M210 190 c-43 -43 -55 -134 -22 -163 21 -19 74 -22 104 -6 44 24 65
141 30 172 -26 24 -87 22 -112 -3z"/>
<path d="M395 198 c-4 -12 -35 -175 -35 -184 0 -2 9 -4 19 -4 15 0 22 11 30
50 6 28 11 60 11 71 0 39 17 9 24 -41 10 -72 14 -80 47 -80 16 0 29 1 29 3 1
1 9 46 19 100 l18 98 -21 -3 c-17 -2 -22 -13 -29 -58 -13 -79 -23 -81 -37 -6
-12 63 -13 66 -41 66 -16 0 -32 -6 -34 -12z"/>
<path d="M623 195 c-50 -35 -66 -152 -23 -175 22 -12 100 -13 117 -2 6 4 14
29 18 55 l7 48 -38 -3 c-27 -2 -40 -8 -42 -20 -2 -11 3 -18 12 -18 19 0 22
-26 4 -33 -22 -7 -47 4 -53 24 -11 32 5 79 32 96 24 16 26 16 38 0 17 -23 55
-22 55 1 0 10 -5 23 -12 30 -17 17 -89 15 -115 -3z"/>
<path d="M1032 143 c-6 -38 -14 -83 -18 -100 -6 -29 -4 -33 15 -33 22 0 25 4
35 53 5 22 12 27 36 27 19 0 28 -4 26 -12 -18 -58 -17 -68 9 -68 14 0 25 6 25
13 1 6 7 48 15 92 18 101 19 95 -5 95 -13 0 -22 -9 -26 -27 -10 -50 -13 -53
-40 -53 -25 0 -26 2 -21 40 5 36 3 40 -17 40 -19 0 -23 -8 -34 -67z"/>
<path d="M1241 116 c-28 -51 -51 -96 -51 -100 0 -15 40 -4 50 14 8 14 21 20
45 20 28 0 35 -4 35 -20 0 -15 7 -20 25 -20 30 0 30 5 10 115 -8 44 -14 81
-15 83 0 1 -11 2 -24 2 -21 0 -33 -15 -75 -94z"/>
<path d="M1435 188 c-2 -13 -11 -58 -19 -101 -14 -78 -14 -78 8 -75 18 3 23
13 31 65 13 79 21 86 30 26 12 -90 14 -93 49 -93 l33 0 12 83 c7 45 14 90 17
100 4 12 0 17 -15 17 -20 0 -22 -5 -37 -92 -8 -48 -20 -41 -29 18 -10 67 -14
74 -46 74 -22 0 -30 -6 -34 -22z"/>
<path d="M1626 121 c-20 -111 -20 -111 3 -111 21 0 31 19 31 56 0 20 5 24 31
24 31 0 31 0 25 -40 -6 -37 -5 -40 17 -40 22 0 24 6 36 83 7 45 14 90 17 100
4 12 0 17 -16 17 -21 0 -24 -4 -34 -52 -5 -23 -12 -28 -36 -28 -31 0 -33 8
-14 68 2 7 -6 12 -20 12 -22 0 -25 -7 -40 -89z"/>
<path d="M1896 128 c-21 -107 -20 -118 4 -118 14 0 21 9 25 34 6 30 11 34 48
39 47 6 67 28 67 72 0 43 -16 55 -76 55 l-51 0 -17 -82z"/>
<path d="M2242 110 c-52 -99 -53 -100 -28 -100 16 0 27 7 31 20 9 28 71 28 80
0 8 -26 59 -29 52 -2 -3 9 -11 54 -17 100 -12 79 -13 82 -39 82 -23 0 -33 -13
-79 -100z"/>
<path d="M2449 189 c-31 -31 -22 -70 21 -91 40 -20 46 -41 13 -46 -13 -2 -23
1 -23 7 0 6 -11 11 -25 11 -27 0 -31 -10 -15 -41 8 -14 21 -19 55 -19 35 0 48
5 64 26 34 43 28 73 -19 91 -41 16 -52 36 -25 47 9 3 18 -1 21 -9 9 -22 54
-19 54 3 0 28 -21 42 -62 42 -25 0 -45 -7 -59 -21z"/>
<path d="M2897 198 c-41 -32 -61 -142 -31 -172 20 -20 83 -21 112 0 30 21 28
44 -3 44 -14 0 -25 -4 -25 -10 0 -5 -11 -10 -25 -10 -22 0 -25 4 -25 34 0 70
33 111 64 81 19 -19 56 -19 56 -1 0 40 -84 63 -123 34z"/>
</g>
</svg>
