<svg width="64" height="64" viewBox="0 0 64 64" fill="none" xmlns="http://www.w3.org/2000/svg">
<rect x="0.5" y="0.5" width="63" height="63" rx="5.5" fill="#F2F2F2" stroke="#828282" stroke-dasharray="10 10"/>
<path d="M42.043 26.6445L35.4805 20.082C35.3019 19.9079 35.0619 19.8111 34.8125 19.8125H23.5625C23.0652 19.8125 22.5883 20.0101 22.2367 20.3617C21.885 20.7133 21.6875 21.1902 21.6875 21.6875V42.3125C21.6875 42.8098 21.885 43.2867 22.2367 43.6383C22.5883 43.99 23.0652 44.1875 23.5625 44.1875H40.4375C40.9348 44.1875 41.4117 43.99 41.7633 43.6383C42.115 43.2867 42.3125 42.8098 42.3125 42.3125V27.3125C42.3139 27.0631 42.2171 26.8231 42.043 26.6445ZM34.8125 35.75H32.9375V37.625C32.9375 37.8737 32.8387 38.1121 32.6629 38.2879C32.4871 38.4637 32.2486 38.5625 32 38.5625C31.7514 38.5625 31.5129 38.4637 31.3371 38.2879C31.1613 38.1121 31.0625 37.8737 31.0625 37.625V35.75H29.1875C28.9389 35.75 28.7004 35.6512 28.5246 35.4754C28.3488 35.2996 28.25 35.0612 28.25 34.8125C28.25 34.5639 28.3488 34.3254 28.5246 34.1496C28.7004 33.9738 28.9389 33.875 29.1875 33.875H31.0625V32C31.0625 31.7514 31.1613 31.5129 31.3371 31.3371C31.5129 31.1613 31.7514 31.0625 32 31.0625C32.2486 31.0625 32.4871 31.1613 32.6629 31.3371C32.8387 31.5129 32.9375 31.7514 32.9375 32V33.875H34.8125C35.0611 33.875 35.2996 33.9738 35.4754 34.1496C35.6512 34.3254 35.75 34.5639 35.75 34.8125C35.75 35.0612 35.6512 35.2996 35.4754 35.4754C35.2996 35.6512 35.0611 35.75 34.8125 35.75ZM34.8125 27.3125V22.0742L40.0508 27.3125H34.8125Z" fill="#828282"/>
</svg>
