<svg width="56" height="66" viewBox="0 0 56 66" fill="none" xmlns="http://www.w3.org/2000/svg">
<path d="M54.7812 18.6873L37.2812 1.1873C36.805 0.72299 36.1651 0.464796 35.5 0.468546H5.5C4.17392 0.468546 2.90215 0.99533 1.96447 1.93301C1.02678 2.87069 0.5 4.14246 0.5 5.46855V60.4685C0.5 61.7946 1.02678 63.0664 1.96447 64.0041C2.90215 64.9418 4.17392 65.4685 5.5 65.4685H50.5C51.8261 65.4685 53.0979 64.9418 54.0355 64.0041C54.9732 63.0664 55.5 61.7946 55.5 60.4685V20.4685C55.5037 19.8034 55.2456 19.1636 54.7812 18.6873V18.6873ZM35.5 42.9685H30.5V47.9685C30.5 48.6316 30.2366 49.2675 29.7678 49.7363C29.2989 50.2052 28.663 50.4685 28 50.4685C27.337 50.4685 26.7011 50.2052 26.2322 49.7363C25.7634 49.2675 25.5 48.6316 25.5 47.9685V42.9685H20.5C19.837 42.9685 19.2011 42.7052 18.7322 42.2363C18.2634 41.7675 18 41.1316 18 40.4685C18 39.8055 18.2634 39.1696 18.7322 38.7008C19.2011 38.2319 19.837 37.9685 20.5 37.9685H25.5V32.9685C25.5 32.3055 25.7634 31.6696 26.2322 31.2008C26.7011 30.7319 27.337 30.4685 28 30.4685C28.663 30.4685 29.2989 30.7319 29.7678 31.2008C30.2366 31.6696 30.5 32.3055 30.5 32.9685V37.9685H35.5C36.163 37.9685 36.7989 38.2319 37.2678 38.7008C37.7366 39.1696 38 39.8055 38 40.4685C38 41.1316 37.7366 41.7675 37.2678 42.2363C36.7989 42.7052 36.163 42.9685 35.5 42.9685ZM35.5 20.4685V6.4998L49.4687 20.4685H35.5Z" fill="#C9E49F"/>
</svg>
