<svg width="24" height="24" viewBox="0 0 24 24" fill="none" xmlns="http://www.w3.org/2000/svg">
<path d="M19.4998 11.9999C19.7665 11.9999 20.0266 12.023 20.279 12.0671C21.0657 12.2048 21.9998 11.6901 21.9998 10.8914V7.99995C21.9998 6.89995 21.0998 5.99995 19.9998 5.99995H13.7098L12.6498 4.93995L13.7048 3.88495C13.9009 3.68889 13.9009 3.37101 13.7048 3.17495C13.5088 2.97889 13.1909 2.97889 12.9948 3.17495L10.1748 5.99495C9.97876 6.19101 9.97876 6.50889 10.1748 6.70495C10.3709 6.90101 10.6888 6.90101 10.8848 6.70495L11.9398 5.64995L12.9998 6.70995V8.99995C12.9998 10.0999 12.0998 10.9999 10.9998 10.9999C10.7918 10.9999 10.6781 11.2503 10.803 11.4167C11.5758 12.4465 11.9986 13.7028 11.9998 14.9999C11.9998 15.5288 12.386 15.9999 12.9148 15.9999H14.1548C14.6643 15.9999 15.0809 15.6112 15.2356 15.1257C15.8137 13.3125 17.4992 11.9999 19.4998 11.9999Z" fill="white"/>
<path d="M19.5 13C17.57 13 16 14.57 16 16.5C16 18.43 17.57 20 19.5 20C21.43 20 23 18.43 23 16.5C23 14.57 21.43 13 19.5 13ZM19.5 18C18.67 18 18 17.33 18 16.5C18 15.67 18.67 15 19.5 15C20.33 15 21 15.67 21 16.5C21 17.33 20.33 18 19.5 18ZM4 9H8C8.55228 9 9.02005 8.52543 8.75378 8.04157C8.41291 7.42215 7.75336 7 7 7H4C3.45 7 3 7.45 3 8C3 8.55 3.45 9 4 9ZM9.83 13.82L9.65 13.35L10.0868 13.1856C10.3549 13.0847 10.4856 12.7781 10.3434 12.5294C9.94875 11.8394 9.39256 11.255 8.72277 10.8268C8.4834 10.6738 8.173 10.7858 8.05653 11.045L7.87 11.46L7.41 11.25L7.59912 10.8245C7.71428 10.5654 7.5915 10.26 7.31855 10.1833C6.9012 10.0659 6.45567 10 6 10C5.65368 10 5.3159 10.047 4.98945 10.1214C4.70975 10.1851 4.56443 10.486 4.66484 10.7547L4.82 11.17L4.35 11.35L4.1856 10.9132C4.08471 10.6451 3.77809 10.5144 3.52944 10.6566C2.83939 11.0513 2.25502 11.6074 1.82679 12.2772C1.67375 12.5166 1.78583 12.827 2.04497 12.9435L2.46 13.13L2.25 13.59L1.82447 13.4009C1.56537 13.2857 1.26002 13.4085 1.18326 13.6815C1.0659 14.0988 1 14.5443 1 15C1 15.3463 1.04697 15.6841 1.12137 16.0105C1.18512 16.2903 1.48598 16.4356 1.75471 16.3352L2.17 16.18L2.35 16.65L1.91317 16.8144C1.64508 16.9153 1.51442 17.2219 1.65662 17.4706C2.05125 18.1606 2.60744 18.745 3.27724 19.1732C3.5166 19.3262 3.827 19.2142 3.94347 18.955L4.13 18.54L4.59 18.75L4.40088 19.1755C4.28572 19.4346 4.40851 19.74 4.68145 19.8167C5.0988 19.9341 5.54433 20 6 20C6.34632 20 6.6841 19.953 7.01055 19.8786C7.29026 19.8149 7.43557 19.514 7.33516 19.2453L7.18 18.83L7.65 18.65L7.8144 19.0868C7.91529 19.3549 8.22191 19.4856 8.47056 19.3434C9.16061 18.9487 9.74498 18.3926 10.1732 17.7228C10.3262 17.4834 10.2142 17.173 9.95503 17.0565L9.54 16.87L9.75 16.41L10.1755 16.5991C10.4346 16.7143 10.74 16.5915 10.8167 16.3185C10.9341 15.9012 11 15.4557 11 15C11 14.6537 10.953 14.3159 10.8786 13.9895C10.8149 13.7097 10.514 13.5644 10.2453 13.6648L9.83 13.82Z" fill="white"/>
</svg>
