<svg width="70" height="70" viewBox="0 0 70 70" fill="none" xmlns="http://www.w3.org/2000/svg">
<path d="M35 6.5625C29.3756 6.5625 23.8775 8.23033 19.201 11.3551C14.5245 14.4798 10.8796 18.9212 8.72719 24.1174C6.57482 29.3137 6.01166 35.0315 7.10893 40.5479C8.2062 46.0642 10.9146 51.1313 14.8917 55.1083C18.8687 59.0854 23.9358 61.7938 29.4521 62.8911C34.9685 63.9883 40.6863 63.4252 45.8826 61.2728C51.0788 59.1205 55.5202 55.4755 58.6449 50.799C61.7697 46.1225 63.4375 40.6244 63.4375 35C63.4231 27.4623 60.4223 20.2376 55.0924 14.9076C49.7625 9.57768 42.5377 6.57695 35 6.5625ZM48.5352 30.0234L32.5117 45.3359C32.0975 45.7256 31.5492 45.941 30.9805 45.9375C30.7025 45.9415 30.4265 45.8904 30.1684 45.7871C29.9102 45.6839 29.6751 45.5305 29.4766 45.3359L21.4649 37.6797C21.2426 37.4858 21.0619 37.249 20.9336 36.9835C20.8052 36.718 20.7318 36.4293 20.7179 36.1347C20.704 35.8402 20.7497 35.5458 20.8525 35.2694C20.9552 34.9929 21.1127 34.7401 21.3157 34.5261C21.5186 34.3122 21.7627 34.1414 22.0333 34.0242C22.3039 33.9069 22.5954 33.8456 22.8903 33.8439C23.1851 33.8422 23.4773 33.9001 23.7493 34.0142C24.0212 34.1283 24.2673 34.2962 24.4727 34.5078L30.9805 40.7148L45.5274 26.8516C45.9527 26.4805 46.505 26.2882 47.0688 26.3148C47.6327 26.3415 48.1644 26.5851 48.5528 26.9947C48.9412 27.4043 49.1562 27.9482 49.1529 28.5126C49.1496 29.0771 48.9283 29.6184 48.5352 30.0234Z" fill="#27AE60"/>
</svg>
