<svg width="24" height="24" xmlns="http://www.w3.org/2000/svg" fill="none">

 <g>
  <title>Layer 1</title>
  <path id="svg_1" stroke-linejoin="round" stroke-linecap="round" stroke-width="2" stroke="black" d="m21,12c0,1.1819 -0.2328,2.3522 -0.6851,3.4442c-0.4523,1.0919 -1.1152,2.084 -1.9509,2.9198c-0.8358,0.8357 -1.8279,1.4986 -2.9198,1.9509c-1.092,0.4523 -2.2623,0.6851 -3.4442,0.6851c-1.1819,0 -2.35222,-0.2328 -3.44415,-0.6851c-1.09193,-0.4523 -2.08408,-1.1152 -2.91981,-1.9509c-0.83573,-0.8358 -1.49866,-1.8279 -1.95096,-2.9198c-0.45229,-1.092 -0.68508,-2.2623 -0.68508,-3.4442c0,-2.38695 0.94821,-4.67613 2.63604,-6.36396c1.68783,-1.68783 3.97701,-2.63604 6.36396,-2.63604c2.3869,0 4.6761,0.94821 6.364,2.63604c1.6878,1.68783 2.636,3.97701 2.636,6.36396z"/>
 </g>
</svg>