<svg width="24" height="25" viewBox="0 0 24 25" fill="none" xmlns="http://www.w3.org/2000/svg">
<path d="M16.0756 2.01318H19.4616C20.8639 2.01318 22.0001 3.16657 22.0001 4.58999V8.02701C22.0001 9.45043 20.8639 10.6038 19.4616 10.6038H16.0756C14.6734 10.6038 13.5371 9.45043 13.5371 8.02701V4.58999C13.5371 3.16657 14.6734 2.01318 16.0756 2.01318Z" fill="white"/>
<path fill-rule="evenodd" clip-rule="evenodd" d="M4.53852 2.01318H7.92449C9.32676 2.01318 10.463 3.16657 10.463 4.58999V8.02701C10.463 9.45043 9.32676 10.6038 7.92449 10.6038H4.53852C3.13626 10.6038 2 9.45043 2 8.02701V4.58999C2 3.16657 3.13626 2.01318 4.53852 2.01318ZM4.53852 13.5541H7.92449C9.32676 13.5541 10.463 14.7075 10.463 16.1309V19.5679C10.463 20.9903 9.32676 22.1447 7.92449 22.1447H4.53852C3.13626 22.1447 2 20.9903 2 19.5679V16.1309C2 14.7075 3.13626 13.5541 4.53852 13.5541ZM19.4616 13.5541H16.0756C14.6734 13.5541 13.5371 14.7075 13.5371 16.1309V19.5679C13.5371 20.9903 14.6734 22.1447 16.0756 22.1447H19.4616C20.8639 22.1447 22.0001 20.9903 22.0001 19.5679V16.1309C22.0001 14.7075 20.8639 13.5541 19.4616 13.5541Z" fill="white"/>
</svg>
