<svg width="54" height="60" viewBox="0 0 54 60" fill="none" xmlns="http://www.w3.org/2000/svg">
<path d="M49.2935 22.6742C49.2935 22.8725 47.739 42.5331 46.8512 50.8074C46.2952 55.8851 43.0217 58.965 38.1116 59.0525C34.3389 59.1371 30.6456 59.1662 27.0119 59.1662C23.1541 59.1662 19.3814 59.1371 15.7194 59.0525C10.9737 58.9387 7.69741 55.7976 7.1698 50.8074C6.25642 42.5039 4.73032 22.8725 4.70195 22.6742C4.67359 22.0763 4.86648 21.5076 5.25793 21.0467C5.64371 20.6209 6.19968 20.3643 6.78402 20.3643H47.2398C47.8213 20.3643 48.3489 20.6209 48.7659 21.0467C49.1545 21.5076 49.3502 22.0763 49.2935 22.6742Z" fill="#EB5757"/>
<path d="M53.25 12.4322C53.25 11.2335 52.3054 10.2943 51.1708 10.2943H42.6666C40.9363 10.2943 39.4329 9.06355 39.0471 7.3282L38.5705 5.20202C37.9039 2.63253 35.6034 0.833008 33.0221 0.833008H20.9807C18.371 0.833008 16.0932 2.63253 15.4011 5.34202L14.9557 7.33111C14.5671 9.06355 13.0637 10.2943 11.3362 10.2943H2.83207C1.69459 10.2943 0.75 11.2335 0.75 12.4322V13.5405C0.75 14.71 1.69459 15.6783 2.83207 15.6783H51.1708C52.3054 15.6783 53.25 14.71 53.25 13.5405V12.4322Z" fill="#EB5757"/>
</svg>
