<?xml version="1.0" encoding="UTF-8"?>
<svg xmlns="http://www.w3.org/2000/svg" xmlns:xlink="http://www.w3.org/1999/xlink" width="5px" height="7px" viewBox="0 0 5 7" version="1.1">
<g id="surface1">
<path style=" stroke:none;fill-rule:nonzero;fill:rgb(27.843137%,27.843137%,27.843137%);fill-opacity:1;" d="M 2.328125 0.6875 C 2.347656 0.667969 2.375 0.652344 2.402344 0.640625 C 2.433594 0.628906 2.464844 0.621094 2.5 0.621094 C 2.535156 0.621094 2.566406 0.628906 2.597656 0.640625 C 2.625 0.652344 2.652344 0.667969 2.671875 0.6875 L 4.546875 2.710938 C 4.566406 2.734375 4.582031 2.761719 4.582031 2.789062 C 4.585938 2.820312 4.578125 2.847656 4.558594 2.871094 C 4.542969 2.898438 4.515625 2.917969 4.484375 2.933594 C 4.449219 2.949219 4.414062 2.957031 4.375 2.957031 L 0.625 2.957031 C 0.585938 2.957031 0.550781 2.949219 0.515625 2.933594 C 0.484375 2.917969 0.457031 2.898438 0.441406 2.871094 C 0.421875 2.847656 0.414062 2.820312 0.417969 2.789062 C 0.417969 2.761719 0.433594 2.734375 0.453125 2.710938 Z M 2.328125 0.6875 "/>
</g>
</svg>
