<svg width="24" height="24" viewBox="0 0 24 24" fill="none" xmlns="http://www.w3.org/2000/svg">
<path fill-rule="evenodd" clip-rule="evenodd" d="M8.92568 16.39H14.3118C14.7178 16.39 15.0544 16.05 15.0544 15.64C15.0544 15.23 14.7178 14.9 14.3118 14.9H8.92568C8.51974 14.9 8.18311 15.23 8.18311 15.64C8.18311 16.05 8.51974 16.39 8.92568 16.39ZM12.2722 9.90002H8.92568C8.51974 9.90002 8.18311 10.24 8.18311 10.65C8.18311 11.06 8.51974 11.39 8.92568 11.39H12.2722C12.6782 11.39 13.0148 11.06 13.0148 10.65C13.0148 10.24 12.6782 9.90002 12.2722 9.90002ZM19.3381 9.02561C19.5708 9.02292 19.8242 9.02 20.0545 9.02C20.302 9.02 20.5 9.22 20.5 9.47V17.51C20.5 19.99 18.5099 22 16.0545 22H8.17327C5.59901 22 3.5 19.89 3.5 17.29V6.51C3.5 4.03 5.5 2 7.96535 2H13.2525C13.5099 2 13.7079 2.21 13.7079 2.46V5.68C13.7079 7.51 15.203 9.01 17.0149 9.02C17.4381 9.02 17.8112 9.02316 18.1377 9.02593C18.3917 9.02809 18.6175 9.03 18.8168 9.03C18.9578 9.03 19.1405 9.02789 19.3381 9.02561ZM19.6113 7.56601C18.7974 7.56901 17.838 7.56601 17.1479 7.55901C16.0529 7.55901 15.1509 6.64801 15.1509 5.54201V2.90601C15.1509 2.47501 15.6687 2.26101 15.9647 2.57201C16.5007 3.13486 17.2373 3.90859 17.9704 4.67874C18.7013 5.44657 19.4289 6.21084 19.9509 6.75901C20.24 7.06201 20.0281 7.56501 19.6113 7.56601Z" fill="white"/>
</svg>
