<svg width="none" height="none" viewBox="0 0 285 285" fill="none" xmlns="http://www.w3.org/2000/svg">
<rect x="0.5" y="0.5" width="284" height="284" rx="5.5" fill="#F2F2F2" stroke="#828282" stroke-linecap="round" stroke-dasharray="10 10"/>
<path d="M153.043 137.645L146.48 131.082C146.302 130.908 146.062 130.811 145.813 130.812H134.563C134.065 130.812 133.588 131.01 133.237 131.362C132.885 131.713 132.688 132.19 132.688 132.688V153.313C132.688 153.81 132.885 154.287 133.237 154.638C133.588 154.99 134.065 155.188 134.563 155.188H151.438C151.935 155.188 152.412 154.99 152.763 154.638C153.115 154.287 153.313 153.81 153.313 153.313V138.313C153.314 138.063 153.217 137.823 153.043 137.645V137.645ZM145.813 146.75H143.938V148.625C143.938 148.874 143.839 149.112 143.663 149.288C143.487 149.464 143.249 149.563 143 149.563C142.751 149.563 142.513 149.464 142.337 149.288C142.161 149.112 142.063 148.874 142.063 148.625V146.75H140.188C139.939 146.75 139.7 146.651 139.525 146.475C139.349 146.3 139.25 146.061 139.25 145.813C139.25 145.564 139.349 145.325 139.525 145.15C139.7 144.974 139.939 144.875 140.188 144.875H142.063V143C142.063 142.751 142.161 142.513 142.337 142.337C142.513 142.161 142.751 142.063 143 142.063C143.249 142.063 143.487 142.161 143.663 142.337C143.839 142.513 143.938 142.751 143.938 143V144.875H145.813C146.061 144.875 146.3 144.974 146.475 145.15C146.651 145.325 146.75 145.564 146.75 145.813C146.75 146.061 146.651 146.3 146.475 146.475C146.3 146.651 146.061 146.75 145.813 146.75ZM145.813 138.313V133.074L151.051 138.313H145.813Z" fill="#828282"/>
</svg>
