<svg width="24" height="24" viewBox="0 0 24 24" fill="none" xmlns="http://www.w3.org/2000/svg">
<path d="M6.0157 10.9714C6.4009 10.9714 6.74877 11.1946 6.93384 11.5325C8.59511 14.5649 11.4217 16.5832 11.5895 16.702C11.6851 16.7659 11.7973 16.8 11.9121 16.8C12.0269 16.8 12.1391 16.7659 12.2347 16.702C12.4024 16.5832 15.2291 14.5649 16.8903 11.5325C17.0754 11.1946 17.4233 10.9714 17.8085 10.9714H20.5617C20.9084 10.9714 21.2006 11.2304 21.2424 11.5746L21.4097 12.955L9.66983 19.5389L3.77346 10.9714H6.0157Z" fill="white"/>
<path d="M17.6446 16.2458L21.5436 14.0592L22.4476 21.5175C22.4838 21.8166 22.3226 22.0896 22.0721 22.2143L17.6446 16.2458Z" fill="white"/>
<path d="M2.71375 11.2461C2.64377 11.3394 2.59673 11.4516 2.58183 11.5746L1.37664 21.5175C1.32725 21.9259 1.646 22.2857 2.05733 22.2857H4.77189L8.76883 20.0442L2.71375 11.2461Z" fill="white"/>
<path d="M20.8445 22.2857H6.87474L16.7403 16.753L20.8445 22.2857Z" fill="white"/>
<path d="M12 2C10.6744 2.00154 9.40348 2.54012 8.46613 3.4976C7.52877 4.45508 7.0015 5.75326 7 7.10734C7 11.4776 11.5455 14.78 11.7386 14.9193C11.8161 14.9719 11.907 15 12 15C12.093 15 12.1839 14.9719 12.2614 14.9193C12.4545 14.78 17 11.4776 17 7.10734C16.9985 5.75326 16.4712 4.45508 15.5339 3.4976C14.5965 2.54012 13.3256 2.00154 12 2ZM12 5.25013C12.3596 5.25013 12.7111 5.35905 13.0101 5.56312C13.3091 5.7672 13.5422 6.05725 13.6798 6.39662C13.8174 6.73598 13.8534 7.1094 13.7832 7.46967C13.7131 7.82993 13.5399 8.16085 13.2856 8.42059C13.0314 8.68033 12.7074 8.85721 12.3547 8.92887C12.002 9.00053 11.6364 8.96375 11.3042 8.82318C10.972 8.68262 10.688 8.44457 10.4882 8.13915C10.2885 7.83374 10.1818 7.47466 10.1818 7.10734C10.1818 6.61478 10.3734 6.14239 10.7144 5.79409C11.0553 5.4458 11.5178 5.25013 12 5.25013Z" fill="white"/>
</svg>
