<svg width="18" height="21" viewBox="0 0 18 21" fill="none" xmlns="http://www.w3.org/2000/svg">
<path d="M16.7695 9.72198C16.039 8.86332 15.7071 8.11922 15.7071 6.85506V6.42522C15.7071 4.77786 15.3304 3.71645 14.5115 2.65505C13.2493 1.00667 11.1244 0.0131836 9.04423 0.0131836H8.95577C6.91935 0.0131836 4.86106 0.96105 3.577 2.54252C2.71333 3.62522 2.29293 4.73224 2.29293 6.42522V6.85506C2.29293 8.11922 1.98284 8.86332 1.23049 9.72198C0.676907 10.3546 0.5 11.1676 0.5 12.0475C0.5 12.9285 0.787226 13.7628 1.36367 14.441C2.11602 15.2541 3.17846 15.7731 4.26375 15.8633C5.83505 16.0438 7.40634 16.1117 9.0005 16.1117C10.5937 16.1117 12.165 15.9982 13.7372 15.8633C14.8215 15.7731 15.884 15.2541 16.6363 14.441C17.2118 13.7628 17.5 12.9285 17.5 12.0475C17.5 11.1676 17.3231 10.3546 16.7695 9.72198Z" fill="white"/>
<path d="M11.0088 17.355C10.5088 17.2475 7.46266 17.2475 6.96275 17.355C6.53539 17.4544 6.07324 17.6855 6.07324 18.1924C6.09809 18.6759 6.37935 19.1027 6.76895 19.3734L6.76795 19.3744C7.27184 19.7698 7.86319 20.0212 8.48236 20.1114C8.81232 20.157 9.14825 20.155 9.49014 20.1114C10.1083 20.0212 10.6997 19.7698 11.2036 19.3744L11.2026 19.3734C11.5922 19.1027 11.8734 18.6759 11.8983 18.1924C11.8983 17.6855 11.4361 17.4544 11.0088 17.355Z" fill="white"/>
</svg>
