<svg width="16" height="16" viewBox="0 0 16 16" fill="white" xmlns="http://www.w3.org/2000/svg">
<path id='pencil-alt-icon' d="M14.6609 13.7944H9.91569C9.45272 13.7944 9.07617 14.1769 9.07617 14.6472C9.07617 15.1184 9.45272 15.5 9.91569 15.5H14.6609C15.1239 15.5 15.5004 15.1184 15.5004 14.6472C15.5004 14.1769 15.1239 13.7944 14.6609 13.7944Z"/>
<path id='pencil-alt-icon' d="M6.59085 3.75321L11.0874 7.38662C11.1959 7.47351 11.2144 7.63297 11.1297 7.74405L5.79895 14.6902C5.46385 15.1193 4.97001 15.362 4.4409 15.371L1.5308 15.4068C1.37559 15.4086 1.23979 15.3011 1.20452 15.147L0.543129 12.2715C0.428489 11.7429 0.543129 11.1965 0.878232 10.7755L6.23547 3.79621C6.32189 3.68423 6.4815 3.66452 6.59085 3.75321Z"/>
<path id='pencil-alt-icon' d="M13.1011 5.2212L12.2342 6.30334C12.1469 6.41352 11.9899 6.43144 11.8815 6.34365C10.8277 5.49084 8.12919 3.30237 7.3805 2.69591C7.27115 2.60633 7.25616 2.44687 7.34435 2.33579L8.18034 1.29755C8.93873 0.321114 10.2615 0.231533 11.3285 1.08255L12.5543 2.05899C13.057 2.45314 13.3921 2.97271 13.5067 3.51916C13.639 4.12025 13.4979 4.71059 13.1011 5.2212Z"/>
</svg>
