<svg width="24" height="25" viewBox="0 0 24 25" fill="none" xmlns="http://www.w3.org/2000/svg">
<path fill-rule="evenodd" clip-rule="evenodd" d="M20.4023 14.1168C20.76 14.308 21.036 14.61 21.2301 14.9119C21.6083 15.536 21.5776 16.301 21.2097 16.9754L20.4943 18.1833C20.1162 18.8275 19.411 19.2302 18.6855 19.2302C18.3278 19.2302 17.9292 19.1295 17.6022 18.9282C17.3365 18.7571 17.0299 18.6967 16.7029 18.6967C15.6911 18.6967 14.8429 19.5321 14.8122 20.5287C14.8122 21.6862 13.872 22.5921 12.6968 22.5921H11.3069C10.1215 22.5921 9.18125 21.6862 9.18125 20.5287C9.16081 19.5321 8.31259 18.6967 7.30085 18.6967C6.96361 18.6967 6.65702 18.7571 6.40153 18.9282C6.0745 19.1295 5.66572 19.2302 5.31825 19.2302C4.58245 19.2302 3.87729 18.8275 3.49917 18.1833L2.79402 16.9754C2.4159 16.3212 2.39546 15.536 2.77358 14.9119C2.93709 14.61 3.24368 14.308 3.59115 14.1168C3.87729 13.9758 4.06125 13.7443 4.23498 13.4725C4.74596 12.6069 4.43937 11.4694 3.57071 10.9561C2.55897 10.3823 2.23194 9.10399 2.81446 8.10748L3.49917 6.91971C4.09191 5.9232 5.35913 5.5709 6.38109 6.15472C7.27019 6.63787 8.425 6.31577 8.9462 5.46018C9.10972 5.17833 9.20169 4.87636 9.18125 4.57439C9.16081 4.18182 9.27323 3.80939 9.4674 3.50741C9.84553 2.88333 10.5302 2.4807 11.2763 2.46057H12.7172C13.4735 2.46057 14.1582 2.88333 14.5363 3.50741C14.7203 3.80939 14.8429 4.18182 14.8122 4.57439C14.7918 4.87636 14.8838 5.17833 15.0473 5.46018C15.5685 6.31577 16.7233 6.63787 17.6226 6.15472C18.6344 5.5709 19.9118 5.9232 20.4943 6.91971L21.179 8.10748C21.7718 9.10399 21.4447 10.3823 20.4228 10.9561C19.5541 11.4694 19.2475 12.6069 19.7687 13.4725C19.9322 13.7443 20.1162 13.9758 20.4023 14.1168ZM9.10986 12.5365C9.10986 14.1168 10.4077 15.375 12.0122 15.375C13.6167 15.375 14.8839 14.1168 14.8839 12.5365C14.8839 10.9562 13.6167 9.68787 12.0122 9.68787C10.4077 9.68787 9.10986 10.9562 9.10986 12.5365Z" fill="white"/>
</svg>
