<svg width="24" height="25" viewBox="0 0 24 25" fill="none" xmlns="http://www.w3.org/2000/svg">
<path d="M19.7695 12.0114C19.039 11.1527 18.7071 10.4086 18.7071 9.14449V8.71465C18.7071 7.06729 18.3304 6.00588 17.5115 4.94447C16.2493 3.2961 14.1244 2.30261 12.0442 2.30261H11.9558C9.91935 2.30261 7.86106 3.25048 6.577 4.83195C5.71333 5.91464 5.29293 7.02167 5.29293 8.71465V9.14449C5.29293 10.4086 4.98284 11.1527 4.23049 12.0114C3.67691 12.644 3.5 13.457 3.5 14.337C3.5 15.2179 3.78723 16.0523 4.36367 16.7305C5.11602 17.5435 6.17846 18.0625 7.26375 18.1528C8.83505 18.3332 10.4063 18.4011 12.0005 18.4011C13.5937 18.4011 15.165 18.2876 16.7372 18.1528C17.8215 18.0625 18.884 17.5435 19.6363 16.7305C20.2118 16.0523 20.5 15.2179 20.5 14.337C20.5 13.457 20.3231 12.644 19.7695 12.0114Z" fill="white"/>
<path d="M14.0088 19.6443C13.5088 19.5369 10.4627 19.5369 9.96275 19.6443C9.53539 19.7437 9.07324 19.9748 9.07324 20.4817C9.09809 20.9652 9.37935 21.392 9.76895 21.6627L9.76795 21.6637C10.2718 22.0591 10.8632 22.3105 11.4824 22.4007C11.8123 22.4464 12.1482 22.4443 12.4901 22.4007C13.1083 22.3105 13.6997 22.0591 14.2036 21.6637L14.2026 21.6627C14.5922 21.392 14.8734 20.9652 14.8983 20.4817C14.8983 19.9748 14.4361 19.7437 14.0088 19.6443Z" fill="white"/>
</svg>
