<svg width="24" height="24" viewBox="0 0 24 24" fill="none" xmlns="http://www.w3.org/2000/svg">
<path fill-rule="evenodd" clip-rule="evenodd" d="M12.3266 2.20966C12.4863 2.06632 12.6975 1.99119 12.9138 2.00082C17.4846 2.13765 21.3046 5.4558 21.9969 9.89063C22.0013 9.91711 22.0013 9.94411 21.9969 9.97059C22.0118 10.1804 21.9409 10.3874 21.7999 10.5458C21.6588 10.7043 21.4592 10.801 21.2453 10.8147L13.5658 11.3211C13.3118 11.3436 13.06 11.26 12.8721 11.0909C12.6842 10.9218 12.5777 10.6828 12.5787 10.4326L12.0625 2.88932V2.76493C12.0719 2.55278 12.1669 2.353 12.3266 2.20966ZM11.7997 13.2936L18.4558 12.8671L18.5011 12.8848C18.7869 12.8895 19.0591 13.0054 19.2579 13.207C19.4566 13.4087 19.5655 13.6795 19.5606 13.9599C19.2984 17.782 16.4962 20.9755 12.6828 21.7982C8.86938 22.621 4.96017 20.8754 3.08778 17.5139C2.53722 16.5457 2.1893 15.4794 2.06445 14.3775C2.01603 14.051 1.99483 13.7212 2.00106 13.3913C2.01368 9.32706 4.90728 5.81907 8.95607 4.9595C9.4462 4.86776 9.93762 5.11248 10.1515 5.55479C10.2047 5.63505 10.2473 5.72164 10.2782 5.81245C10.3541 6.98405 10.4329 8.14455 10.5113 9.30015C10.5732 10.2128 10.6349 11.1223 10.6948 12.0319C10.6917 12.2462 10.7254 12.4594 10.7944 12.6627C10.9569 13.0627 11.3614 13.3165 11.7997 13.2936Z" fill="white"/>
</svg>
