<svg width="20" height="21" viewBox="0 0 20 21" fill="none" xmlns="http://www.w3.org/2000/svg">
<path fill-rule="evenodd" clip-rule="evenodd" d="M18.4023 11.6694C18.76 11.8606 19.036 12.1626 19.2301 12.4646C19.6083 13.0886 19.5776 13.8536 19.2097 14.528L18.4943 15.7359C18.1162 16.3802 17.411 16.7828 16.6855 16.7828C16.3278 16.7828 15.9292 16.6821 15.6022 16.4808C15.3365 16.3097 15.0299 16.2493 14.7029 16.2493C13.6911 16.2493 12.8429 17.0848 12.8122 18.0813C12.8122 19.2388 11.872 20.1448 10.6968 20.1448H9.30692C8.12145 20.1448 7.18125 19.2388 7.18125 18.0813C7.16081 17.0848 6.31259 16.2493 5.30085 16.2493C4.96361 16.2493 4.65702 16.3097 4.40153 16.4808C4.0745 16.6821 3.66572 16.7828 3.31825 16.7828C2.58245 16.7828 1.87729 16.3802 1.49917 15.7359L0.79402 14.528C0.415896 13.8738 0.395456 13.0886 0.773581 12.4646C0.937094 12.1626 1.24368 11.8606 1.59115 11.6694C1.87729 11.5284 2.06125 11.2969 2.23498 11.0252C2.74596 10.1595 2.43937 9.02206 1.57071 8.50871C0.55897 7.93496 0.231943 6.6566 0.814459 5.66009L1.49917 4.47233C2.09191 3.47581 3.35913 3.12351 4.38109 3.70733C5.27019 4.19049 6.425 3.86838 6.9462 3.01279C7.10972 2.73095 7.20169 2.42897 7.18125 2.127C7.16081 1.73443 7.27323 1.362 7.4674 1.06003C7.84553 0.435947 8.53024 0.0333152 9.27627 0.0131836H10.7172C11.4735 0.0131836 12.1582 0.435947 12.5363 1.06003C12.7203 1.362 12.8429 1.73443 12.8122 2.127C12.7918 2.42897 12.8838 2.73095 13.0473 3.01279C13.5685 3.86838 14.7233 4.19049 15.6226 3.70733C16.6344 3.12351 17.9118 3.47581 18.4943 4.47233L19.179 5.66009C19.7718 6.6566 19.4447 7.93496 18.4228 8.50871C17.5541 9.02206 17.2475 10.1595 17.7687 11.0252C17.9322 11.2969 18.1162 11.5284 18.4023 11.6694ZM7.10986 10.0891C7.10986 11.6694 8.40775 12.9276 10.0122 12.9276C11.6167 12.9276 12.8839 11.6694 12.8839 10.0891C12.8839 8.50877 11.6167 7.24048 10.0122 7.24048C8.40775 7.24048 7.10986 8.50877 7.10986 10.0891Z" fill="white"/>
</svg>
