<!-- <svg width="24" height="24" viewBox="0 0 24 24" fill="none" xmlns="http://www.w3.org/2000/svg">
<path d="M10 11V17M14 11V17M4 7H20M19 7L18.133 19.142C18.0971 19.6466 17.8713 20.1188 17.5011 20.4636C17.1309 20.8083 16.6439 21 16.138 21H7.862C7.35614 21 6.86907 20.8083 6.49889 20.4636C6.1287 20.1188 5.90292 19.6466 5.867 19.142L5 7H19ZM15 7V4C15 3.73478 14.8946 3.48043 14.7071 3.29289C14.5196 3.10536 14.2652 3 14 3H10C9.73478 3 9.48043 3.10536 9.29289 3.29289C9.10536 3.48043 9 3.73478 9 4V7H15Z" stroke="black" stroke-width="2" stroke-linecap="round" stroke-linejoin="round"/>
</svg> -->

<svg width="16" height="18" viewBox="0 0 16 18" fill="none" xmlns="http://www.w3.org/2000/svg">
<path d="M14.3691 6.90699C14.3691 6.96365 13.925 12.581 13.6713 14.945C13.5125 16.3958 12.5772 17.2758 11.1743 17.3008C10.0964 17.325 9.04118 17.3333 8.00298 17.3333C6.90076 17.3333 5.82284 17.325 4.77654 17.3008C3.42064 17.2683 2.48456 16.3708 2.33381 14.945C2.07284 12.5726 1.63682 6.96365 1.62871 6.90699C1.62061 6.73616 1.67572 6.57366 1.78756 6.442C1.89778 6.32034 2.05663 6.24701 2.22359 6.24701H13.7824C13.9485 6.24701 14.0993 6.32034 14.2184 6.442C14.3294 6.57366 14.3854 6.73616 14.3691 6.90699Z" fill="white"/>
<path d="M15.5 3.98074C15.5 3.63825 15.2301 3.36993 14.9059 3.36993H12.4762C11.9818 3.36993 11.5522 3.01827 11.442 2.52246L11.3059 1.91498C11.1154 1.18084 10.4581 0.666687 9.72061 0.666687H6.2802C5.53458 0.666687 4.88378 1.18084 4.68603 1.95498L4.55879 2.52329C4.44775 3.01827 4.01821 3.36993 3.52464 3.36993H1.09488C0.769883 3.36993 0.5 3.63825 0.5 3.98074V4.29739C0.5 4.63155 0.769883 4.90821 1.09488 4.90821H14.9059C15.2301 4.90821 15.5 4.63155 15.5 4.29739V3.98074Z" fill="white"/>
</svg>
