<svg width="10" height="5" viewBox="0 0 10 5" fill="none" xmlns="http://www.w3.org/2000/svg">
<path d="M4.65769 0.378523C4.69591 0.33707 4.74706 0.303177 4.80673 0.279762C4.86639 0.256348 4.93278 0.244113 5.00019 0.244113C5.06759 0.244113 5.13399 0.256348 5.19365 0.279762C5.25331 0.303177 5.30446 0.33707 5.34269 0.378523L9.09269 4.42297C9.1361 4.46962 9.16155 4.52426 9.16629 4.58095C9.17102 4.63764 9.15486 4.69422 9.11956 4.74454C9.08425 4.79485 9.03116 4.83698 8.96604 4.86635C8.90092 4.89571 8.82626 4.91119 8.75019 4.9111H1.25019C1.17429 4.91087 1.09991 4.89519 1.03505 4.86575C0.970197 4.83632 0.917313 4.79424 0.882091 4.74404C0.846868 4.69384 0.830639 4.63742 0.835149 4.58085C0.839659 4.52428 0.864738 4.46969 0.907687 4.42297L4.65769 0.378523Z" fill="#474747"/>
</svg>
