<svg width="24" height="25" viewBox="0 0 24 25" fill="none" xmlns="http://www.w3.org/2000/svg">
<path d="M11.9488 14.7672C8.49884 14.7672 5.58789 15.3347 5.58789 17.5247C5.58789 19.7157 8.51765 20.2632 11.9488 20.2632C15.3988 20.2632 18.3098 19.6957 18.3098 17.5057C18.3098 15.3147 15.38 14.7672 11.9488 14.7672Z" fill="white"/>
<path d="M11.949 12.6807C14.2851 12.6807 16.1583 10.7843 16.1583 8.41932C16.1583 6.05341 14.2851 4.15796 11.949 4.15796C9.61293 4.15796 7.73975 6.05341 7.73975 8.41932C7.73975 10.7843 9.61293 12.6807 11.949 12.6807Z" fill="white"/>
<path d="M21.0881 9.41152C21.6925 7.01841 19.9205 4.86914 17.664 4.86914C17.4187 4.86914 17.1841 4.89634 16.9549 4.94257C16.9244 4.94982 16.8904 4.96523 16.8725 4.99242C16.8519 5.02687 16.8671 5.0731 16.8895 5.10301C17.5673 6.0657 17.9568 7.23778 17.9568 8.49597C17.9568 9.70159 17.5996 10.8256 16.9728 11.7584C16.9083 11.8545 16.9656 11.9841 17.0793 12.0041C17.2369 12.0322 17.3981 12.0467 17.5629 12.0512C19.2059 12.0947 20.6807 11.0241 21.0881 9.41152Z" fill="white"/>
<path d="M22.8094 15.046C22.5086 14.397 21.7824 13.9519 20.6783 13.7335C20.1572 13.6047 18.747 13.4234 17.4352 13.4479C17.4155 13.4506 17.4048 13.4642 17.403 13.4733C17.4003 13.486 17.4057 13.5077 17.4316 13.5213C18.0378 13.825 20.3811 15.1458 20.0865 17.9314C20.074 18.0519 20.1698 18.1562 20.2888 18.1381C20.8655 18.0547 22.3492 17.7319 22.8094 16.7267C23.0637 16.1955 23.0637 15.5781 22.8094 15.046Z" fill="white"/>
<path d="M7.04459 4.94293C6.81626 4.89579 6.58077 4.86951 6.33543 4.86951C4.07901 4.86951 2.30701 7.01877 2.9123 9.41188C3.31882 11.0245 4.79355 12.0951 6.43661 12.0516C6.60136 12.047 6.76343 12.0316 6.92013 12.0044C7.03384 11.9845 7.09115 11.8548 7.02668 11.7588C6.3999 10.8251 6.04263 9.70196 6.04263 8.49634C6.04263 7.23723 6.43303 6.06515 7.11085 5.10338C7.13234 5.07347 7.14845 5.02723 7.12696 4.99279C7.10906 4.96469 7.07593 4.95018 7.04459 4.94293Z" fill="white"/>
<path d="M3.32156 13.7332C2.21752 13.9517 1.49225 14.3967 1.19139 15.0458C0.936203 15.5779 0.936203 16.1952 1.19139 16.7273C1.65163 17.7317 3.13531 18.0553 3.71195 18.1378C3.83104 18.1559 3.92595 18.0526 3.91342 17.9311C3.61883 15.1464 5.9621 13.8257 6.56918 13.522C6.59425 13.5075 6.59962 13.4866 6.59694 13.473C6.59515 13.464 6.5853 13.4504 6.5656 13.4486C5.25294 13.4232 3.84358 13.6045 3.32156 13.7332Z" fill="white"/>
</svg>
