<svg width="18" height="20" viewBox="0 0 18 20" fill="none" xmlns="http://www.w3.org/2000/svg">
<path d="M17.5127 7.78587L10.0127 0.925402C9.73618 0.670762 9.37498 0.529541 9.0002 0.529541C8.62542 0.529541 8.26422 0.670762 7.9877 0.925402L0.4877 7.78587C0.334142 7.92727 0.211499 8.0993 0.127571 8.29101C0.0436425 8.48271 0.000266168 8.6899 0.000200032 8.89939V17.5906C-0.00589792 17.9712 0.127612 18.3408 0.3752 18.6286C0.51572 18.7895 0.688823 18.9181 0.88287 19.006C1.07692 19.0939 1.28741 19.139 1.5002 19.1382H6.0002C6.19911 19.1382 6.38988 19.0587 6.53053 18.9171C6.67118 18.7755 6.7502 18.5835 6.7502 18.3833V13.8537C6.7502 13.6534 6.82922 13.4614 6.96987 13.3198C7.11052 13.1783 7.30129 13.0987 7.5002 13.0987H10.5002C10.6991 13.0987 10.8899 13.1783 11.0305 13.3198C11.1712 13.4614 11.2502 13.6534 11.2502 13.8537V18.3833C11.2502 18.5835 11.3292 18.7755 11.4699 18.9171C11.6105 19.0587 11.8013 19.1382 12.0002 19.1382H16.5002C16.749 19.1404 16.9942 19.0787 17.2127 18.9589C17.4504 18.8286 17.649 18.6363 17.7875 18.4022C17.9261 18.1681 17.9995 17.9008 18.0002 17.6283V8.89939C18.0001 8.6899 17.9568 8.48271 17.8728 8.29101C17.7889 8.0993 17.6663 7.92727 17.5127 7.78587Z" fill="white"/>
</svg>
