<svg width="70" height="70" viewBox="0 0 70 70" fill="none" xmlns="http://www.w3.org/2000/svg">
<path d="M35 6.5625C29.3756 6.5625 23.8775 8.23033 19.201 11.3551C14.5245 14.4798 10.8796 18.9212 8.72719 24.1174C6.57482 29.3137 6.01166 35.0315 7.10893 40.5479C8.2062 46.0642 10.9146 51.1313 14.8917 55.1083C18.8687 59.0854 23.9358 61.7938 29.4521 62.8911C34.9685 63.9883 40.6863 63.4252 45.8826 61.2728C51.0788 59.1205 55.5202 55.4755 58.6449 50.799C61.7697 46.1225 63.4375 40.6244 63.4375 35C63.4231 27.4623 60.4223 20.2376 55.0924 14.9076C49.7625 9.57768 42.5377 6.57695 35 6.5625ZM45.3086 42.1914C45.7194 42.6061 45.9498 43.1663 45.9498 43.75C45.9498 44.3337 45.7194 44.8939 45.3086 45.3086C44.8905 45.7129 44.3316 45.9389 43.75 45.9389C43.1684 45.9389 42.6095 45.7129 42.1914 45.3086L35 38.0898L27.8086 45.3086C27.3905 45.7129 26.8316 45.9389 26.25 45.9389C25.6684 45.9389 25.1095 45.7129 24.6914 45.3086C24.2806 44.8939 24.0502 44.3337 24.0502 43.75C24.0502 43.1663 24.2806 42.6061 24.6914 42.1914L31.9102 35L24.6914 27.8086C24.3426 27.3836 24.1643 26.844 24.1913 26.2948C24.2183 25.7456 24.4486 25.2261 24.8373 24.8373C25.2261 24.4485 25.7457 24.2183 26.2948 24.1913C26.844 24.1643 27.3836 24.3426 27.8086 24.6914L35 31.9102L42.1914 24.6914C42.6164 24.3426 43.156 24.1643 43.7052 24.1913C44.2544 24.2183 44.7739 24.4485 45.1627 24.8373C45.5515 25.2261 45.7818 25.7456 45.8087 26.2948C45.8357 26.844 45.6574 27.3836 45.3086 27.8086L38.0899 35L45.3086 42.1914Z" fill="#EB5757"/>
</svg>
